<svg xmlns="http://www.w3.org/2000/svg" data-name="Layer 1" viewBox="0 0 100 125" x="0px" y="0px"><title>Agnoli_Noun Project-Thanksgiving</title><path d="M95.07557,51.18733a3.9561,3.9561,0,0,0-.98144-2.68359,3.91178,3.91178,0,0,0-.50391-5.294,3.85787,3.85787,0,0,0,.4502-2.81933,3.9076,3.9076,0,0,0-1.5918-2.38574,3.923,3.923,0,0,0-1.751-5.02149A3.91171,3.91171,0,0,0,88.349,28.202a3.95219,3.95219,0,0,0-.57324-2.80273A3.90126,3.90126,0,0,0,85.44764,23.742a3.90738,3.90738,0,0,0-3.416-4.08691A3.90728,3.90728,0,0,0,78.143,16.01448a3.845,3.845,0,0,0-1.53222-2.40722,3.92753,3.92753,0,0,0-2.77344-.73633,3.90453,3.90453,0,0,0-4.64648-2.58985,3.90125,3.90125,0,0,0-4.917-2.02343,3.92975,3.92975,0,0,0-5.13769-1.42286,3.88856,3.88856,0,0,0-2.40625-1.415.57452.57452,0,0,0-.07129-.01368,3.86082,3.86082,0,0,0-2.78418.64161,3.88305,3.88305,0,0,0-2.62891-1.1211,3.82158,3.82158,0,0,0-2.69433.97363,3.90608,3.90608,0,0,0-5.29981.49317,3.84344,3.84344,0,0,0-2.82129-.44824,3.911,3.911,0,0,0-2.38183,1.585,3.87274,3.87274,0,0,0-2.85938-.11426.90457.90457,0,0,0-.126.05371,3.90565,3.90565,0,0,0-2.03711,1.8125,3.904,3.904,0,0,0-4.78223,2.34082,3.87745,3.87745,0,0,0-2.67578.49707.967.967,0,0,0-.13574.07422,3.90072,3.90072,0,0,0-1.65723,2.32519,3.9109,3.9109,0,0,0-4.08789,3.419,3.92116,3.92116,0,0,0-3.64746,3.8916,3.9058,3.9058,0,0,0-3.1416,4.29395,3.92493,3.92493,0,0,0-2.60547,4.64648,3.89058,3.89058,0,0,0-2.02246,4.9082,3.90229,3.90229,0,0,0-1.42676,5.12793,3.91832,3.91832,0,0,0-.792,5.27637,3.90711,3.90711,0,0,0-.15528,5.32324A3.91815,3.91815,0,0,0,6.393,56.70979a3.89412,3.89412,0,0,0-.48339,2.6875.991.991,0,0,0,.02148.14161,3.93177,3.93177,0,0,0,1.58887,2.36523A3.90309,3.90309,0,0,0,9.265,66.9305,3.91,3.91,0,0,0,11.6,71.7137a3.86348,3.86348,0,0,0,.49121,2.6709.96076.96076,0,0,0,.07715.14258,3.93346,3.93346,0,0,0,2.32324,1.66015,3.93071,3.93071,0,0,0,3.41308,4.09278,3.90466,3.90466,0,0,0,3.88477,3.64453,3.90166,3.90166,0,0,0,4.2998,3.15137A3.904,3.904,0,0,0,30.725,89.68147a3.90546,3.90546,0,0,0,4.918,2.02832,3.91493,3.91493,0,0,0,5.13379,1.42872,3.98566,3.98566,0,0,0,2.47266,1.44335,3.88849,3.88849,0,0,0,2.78809-.64062,3.98174,3.98174,0,0,0,2.6416,1.13379c.02636,0,.05176.001.07715.001a3.948,3.948,0,0,0,2.60253-.97657,3.90582,3.90582,0,0,0,5.29981-.48828,3.91333,3.91333,0,0,0,5.207-1.12207A3.902,3.902,0,0,0,66.891,90.743a3.89232,3.89232,0,0,0,4.78613-2.32813,3.9032,3.9032,0,0,0,4.47364-2.88965,3.87819,3.87819,0,0,0,2.72265-.89648,3.91966,3.91966,0,0,0,1.36621-2.50684,3.91389,3.91389,0,0,0,3.65821-3.88671,3.89917,3.89917,0,0,0,3.15429-4.293,3.89288,3.89288,0,0,0,2.60547-4.63868A3.95872,3.95872,0,0,0,91.66346,67.2l.04883-.11621a3.94066,3.94066,0,0,0,.03809-2.85254A3.861,3.861,0,0,0,93.4662,61.9471a3.90347,3.90347,0,0,0-.29688-2.84766,3.93709,3.93709,0,0,0,1.42285-2.47656,3.88063,3.88063,0,0,0-.64355-2.791A3.94567,3.94567,0,0,0,95.07557,51.18733ZM91.8578,54.51155a1.88933,1.88933,0,0,1,.75683,1.8125,1.93139,1.93139,0,0,1-1.25488,1.52832,1.0001,1.0001,0,0,0-.34375,1.67285,1.90305,1.90305,0,0,1-.90234,3.23829,1.00022,1.00022,0,0,0-.55664,1.61328,1.95632,1.95632,0,0,1,.28613,1.99511c-.00488.01075-.04.09473-.04395.10547a1.90979,1.90979,0,0,1-1.585,1.1709.99988.99988,0,0,0-.752,1.52539,1.95179,1.95179,0,0,1,.06641,1.98145,1.85935,1.85935,0,0,1-1.71289.96875,1.02492,1.02492,0,0,0-.86817.45508,1.00244,1.00244,0,0,0-.0625.97851A1.9075,1.9075,0,0,1,82.88026,76.283a.99934.99934,0,0,0-1.08887,1.32031,1.89074,1.89074,0,0,1-.41211,1.92285,1.91,1.91,0,0,1-1.90527.53223.99957.99957,0,0,0-1.24609,1.17187,1.9154,1.9154,0,0,1-.63672,1.86328,1.89377,1.89377,0,0,1-1.94532.292A1,1,0,0,0,74.266,84.39046a1.93379,1.93379,0,0,1-.86328,1.77832,1.91024,1.91024,0,0,1-1.97656.05957.99993.99993,0,0,0-1.49121.8418,1.89881,1.89881,0,0,1-3.03223,1.47265,1.00073,1.00073,0,0,0-1.57715.65332,1.90527,1.90527,0,0,1-3.18652,1.11133,1.00055,1.00055,0,0,0-1.63965.457,1.90775,1.90775,0,0,1-3.2998.71387,1,1,0,0,0-1.69141.25781,1.90147,1.90147,0,0,1-3.35254.31348.99926.99926,0,0,0-1.71.04883,1.9639,1.9639,0,0,1-1.707.97754,1.941,1.941,0,0,1-1.67188-1.07911.99876.99876,0,0,0-.81152-.55664.86259.86259,0,0,0-.08691-.0039.99841.99841,0,0,0-.80762.41113,1.89405,1.89405,0,0,1-1.79883.75879,1.93107,1.93107,0,0,1-1.53125-1.27344,1.002,1.002,0,0,0-.73633-.64648.99034.99034,0,0,0-.93555.293,1.90515,1.90515,0,0,1-3.24609-.90723.99939.99939,0,0,0-1.61816-.55859,1.89521,1.89521,0,0,1-1.94727.2998,1.93448,1.93448,0,0,1-1.16992-1.584.99972.99972,0,0,0-1.53906-.74317,1.90523,1.90523,0,0,1-2.93653-1.66406.99956.99956,0,0,0-1.44629-.91406,1.89267,1.89267,0,0,1-2.707-1.98828,1.00316,1.00316,0,0,0-.3457-.92188.99276.99276,0,0,0-.96777-.17871,1.91295,1.91295,0,0,1-2.47266-2.32129.99988.99988,0,0,0-1.18164-1.23242,1.87368,1.87368,0,0,1-1.84961-.65039,1.90249,1.90249,0,0,1-.30078-1.9336.99519.99519,0,0,0-.11621-.9707,1.01424,1.01424,0,0,0-.88867-.4082,1.90928,1.90928,0,0,1-1.71973-.78028c-.01758-.03418-.03711-.06738-.05859-.10058a1.873,1.873,0,0,1-.05957-1.95606,1.00108,1.00108,0,0,0-.84082-1.49316A1.90617,1.90617,0,0,1,11.29335,68.911a1.93418,1.93418,0,0,1,.17089-1.97852.999.999,0,0,0-.666-1.57519A1.89681,1.89681,0,0,1,9.70155,62.1844a1.0003,1.0003,0,0,0-.459-1.65039A1.92014,1.92014,0,0,1,7.9037,59.18733c-.00293-.03027-.00879-.06054-.01465-.09082a1.91041,1.91041,0,0,1,.64062-1.8584A.99925.99925,0,0,0,8.265,55.55257a1.88692,1.88692,0,0,1-1.16992-1.584,1.91715,1.91715,0,0,1,.85645-1.78027,1.00058,1.00058,0,0,0-.0586-1.7041A1.90327,1.90327,0,0,1,7.99061,47.116a.99936.99936,0,0,0,.15723-1.69921,1.916,1.916,0,0,1,.49707-3.35059.99918.99918,0,0,0,.3584-1.667,1.90657,1.90657,0,0,1,.90429-3.252,1.00012,1.00012,0,0,0,.55664-1.62109,1.89411,1.89411,0,0,1,1.28125-3.10449.99956.99956,0,0,0,.74414-1.53809,1.89581,1.89581,0,0,1-.05371-1.97754,1.81863,1.81863,0,0,1,1.69825-.96386,1.04882,1.04882,0,0,0,.86718-.45508,1.00056,1.00056,0,0,0,.0625-.97754A1.91078,1.91078,0,0,1,17.06,23.77913a1.00019,1.00019,0,0,0,1.08789-1.32129,1.90725,1.90725,0,0,1,2.30859-2.459A.99929.99929,0,0,0,21.6996,18.825a1.9153,1.9153,0,0,1,.64453-1.86817A1.89267,1.89267,0,0,1,24.28846,16.66a1.00044,1.00044,0,0,0,1.37793-1.01465,1.90769,1.90769,0,0,1,.77246-1.7168.974.974,0,0,0,.09766-.05664,1.907,1.907,0,0,1,1.9707-.06445,1.00016,1.00016,0,0,0,1.4834-.84668,1.898,1.898,0,0,1,3.02149-1.47754.99988.99988,0,0,0,1.57617-.65234,1.92282,1.92282,0,0,1,1.2666-1.52246c.0293-.00977.05762-.02149.08594-.03418a1.89078,1.89078,0,0,1,1.82714.4375.99977.99977,0,0,0,1.6504-.46094,1.91372,1.91372,0,0,1,3.29785-.72363.99955.99955,0,0,0,1.68847-.2627,1.94106,1.94106,0,0,1,1.582-1.16894,1.90725,1.90725,0,0,1,1.77149.85742.99978.99978,0,0,0,1.71-.04981,1.84563,1.84563,0,0,1,1.71875-.97754,1.91632,1.91632,0,0,1,1.65332,1.06446,1.00306,1.00306,0,0,0,.80664.55566.98941.98941,0,0,0,.89356-.39941,1.93581,1.93581,0,0,1,1.7705-.76953c.01953.0039.03907.00781.0586.01074a1.8976,1.8976,0,0,1,1.51074,1.25293.99893.99893,0,0,0,1.66992.35547,1.91312,1.91312,0,0,1,3.25391.89746,1.00045,1.00045,0,0,0,1.61426.56152,1.9114,1.9114,0,0,1,1.95117-.30371,1.93315,1.93315,0,0,1,1.16992,1.584.99972.99972,0,0,0,1.53906.74316A1.90335,1.90335,0,0,1,72.02381,14.116a1.00043,1.00043,0,0,0,1.44043.92188,1.89863,1.89863,0,0,1,1.96973.18652,1.87682,1.87682,0,0,1,.75684,1.80274.99968.99968,0,0,0,1.3125,1.09082,1.92849,1.92849,0,0,1,1.93066.40918,1.90269,1.90269,0,0,1,.53711,1.89746.99906.99906,0,0,0,1.17285,1.24316,1.90553,1.90553,0,0,1,2.166,2.58789,1.00026,1.00026,0,0,0,.11816.97461.98692.98692,0,0,0,.89551.40332,1.90242,1.90242,0,0,1,1.77344.85157,1.93579,1.93579,0,0,1,.07031,1.97949,1.00015,1.00015,0,0,0,.84668,1.4834,1.9077,1.9077,0,0,1,1.4873,3.02636,1.00013,1.00013,0,0,0,.65332,1.57617A1.9122,1.9122,0,0,1,90.265,37.73714a.99946.99946,0,0,0,.46875,1.64258,1.91272,1.91272,0,0,1,.72168,3.2998.99926.99926,0,0,0,.26465,1.68555,1.90657,1.90657,0,0,1,.31934,3.35449,1.00054,1.00054,0,0,0,.05859,1.7041,1.909,1.909,0,0,1-.09863,3.38574,1.0001,1.0001,0,0,0-.1416,1.70215ZM65.27967,13.11214a39.92718,39.92718,0,1,0,21.60743,52.167A39.97585,39.97585,0,0,0,65.27967,13.11214ZM85.03944,64.51351A37.92587,37.92587,0,1,1,64.51405,14.95979,37.68011,37.68011,0,0,1,85.03944,64.51351ZM68.28065,37.89925a16.2738,16.2738,0,0,0-2.84473,2.06054.75059.75059,0,0,1-1.01562-1.10546,17.82328,17.82328,0,0,1,3.11035-2.25391,14.3388,14.3388,0,0,1,3.80859-1.59082.74969.74969,0,1,1,.34571,1.459A13.07662,13.07662,0,0,0,68.28065,37.89925Zm5.34082.05664a.748.748,0,0,1,.03027,1.05957,14.39869,14.39869,0,0,1-3.28222,2.50293,17.73822,17.73822,0,0,1-3.50879,1.56543.74054.74054,0,0,1-.22363.03418.75.75,0,0,1-.22364-1.46582,16.219,16.219,0,0,0,3.20606-1.43262,13.14545,13.14545,0,0,0,2.94238-2.2334A.74886.74886,0,0,1,73.62147,37.95589Zm2.84375-.8916a2.03622,2.03622,0,0,0-.58105-.63575,2.06573,2.06573,0,0,0-1.18946-2.06543,2.02231,2.02231,0,0,0-.26074-.81542,3.31556,3.31556,0,0,0-3.36035-1.35645,12.49376,12.49376,0,0,0-5.05469,1.792,15.502,15.502,0,0,0-4.41406,3.65332c-1.15137,1.47852-1.46875,2.83985-.89453,3.834a2.78,2.78,0,0,0,1.83593,1.28613,2.77541,2.77541,0,0,0,.19532,2.23242,2.93964,2.93964,0,0,0,2.73633,1.21875,7.49681,7.49681,0,0,0,1.03125-.07617,15.4881,15.4881,0,0,0,5.37207-1.99609c3.88769-2.24512,5.72949-5.08594,4.584-7.07032Zm-5.334,5.77246a13.993,13.993,0,0,1-4.82813,1.80957c-1.15918.16113-2.02539.00488-2.26269-.40723a1.80763,1.80763,0,0,1,.248-1.73535.75027.75027,0,0,0-.64746-1.12891h-.0039a1.7651,1.7651,0,0,1-1.62793-.65429c-.23731-.41211.06054-1.24024.77929-2.16211a13.99671,13.99671,0,0,1,3.98047-3.27637,11.19059,11.19059,0,0,1,4.4209-1.5957c.56641-.03907,1.5791-.02344,1.94531.6123a.76177.76177,0,0,1,.05469.50488.75086.75086,0,0,0,.67676.86719.57149.57149,0,0,1,.46972.81836.75067.75067,0,0,0,.41407,1.02442.77627.77627,0,0,1,.416.30175C75.73866,38.80745,74.38612,40.95686,71.13124,42.83675ZM35.6244,60.08479a.75215.75215,0,0,1-.04492,1.06055,17.90551,17.90551,0,0,1-3.10938,2.25488A14.41549,14.41549,0,0,1,28.66151,64.991a.76884.76884,0,0,1-.17481.02051.75.75,0,0,1-.17285-1.47949A13.11942,13.11942,0,0,0,31.7201,62.1014a16.30417,16.30417,0,0,0,2.84375-2.06153A.75575.75575,0,0,1,35.6244,60.08479Zm-5.24414-.30468a13.06583,13.06583,0,0,0-2.94141,2.23437.75024.75024,0,0,1-1.09179-1.02929,14.43544,14.43544,0,0,1,3.2832-2.50391,17.86376,17.86376,0,0,1,3.50781-1.56543.75023.75023,0,0,1,.44922,1.43164A16.33454,16.33454,0,0,0,30.38026,59.78011ZM37.4535,57.243a2.77457,2.77457,0,0,0-.19531-2.23242c-1.24512-2.1543-5.6377-1.168-9.13867.85351-3.8877,2.24414-5.73047,5.08594-4.585,7.07031a2.0059,2.0059,0,0,0,.58105.63672,2.06572,2.06572,0,0,0,1.18945,2.06543,2.02684,2.02684,0,0,0,.26075.81641,3.08129,3.08129,0,0,0,2.86523,1.376,11.72949,11.72949,0,0,0,5.54981-1.81153c3.502-2.02246,6.55273-5.334,5.30859-7.48828A2.77211,2.77211,0,0,0,37.4535,57.243Zm-4.22265,7.47558c-3.25489,1.87793-5.793,1.97657-6.36622.98438a.76779.76779,0,0,1-.05468-.50684.75088.75088,0,0,0-.67676-.86718.57086.57086,0,0,1-.46973-.81836.75065.75065,0,0,0-.41406-1.02442.77248.77248,0,0,1-.416-.30176c-.57226-.99218.78028-3.1416,4.03614-5.02148a12.32453,12.32453,0,0,1,5.67773-1.87109c.74024,0,1.24024.17187,1.41211.46875a1.81174,1.81174,0,0,1-.24707,1.7373.74929.74929,0,0,0-.002.75293.85953.85953,0,0,0,.65429.375,1.74981,1.74981,0,0,1,1.626.65332C38.46522,60.10237,36.84706,62.62972,33.23085,64.71858Zm.84765-22.12695a.75022.75022,0,0,1-.71582.52637.74049.74049,0,0,1-.22363-.03418,17.78817,17.78817,0,0,1-3.50879-1.56543A14.39876,14.39876,0,0,1,26.348,39.01546a.74954.74954,0,0,1,1.08985-1.0293,13.14522,13.14522,0,0,0,2.94238,2.2334,16.26944,16.26944,0,0,0,3.206,1.43262A.74994.74994,0,0,1,34.0785,42.59163Zm1.501-3.7373a.75059.75059,0,0,1-1.01563,1.10546,16.27381,16.27381,0,0,0-2.84375-2.06054,13.1094,13.1094,0,0,0-3.40527-1.43067.74969.74969,0,0,1,.3457-1.459,14.357,14.357,0,0,1,3.80957,1.59082A17.86148,17.86148,0,0,1,35.57948,38.85433Zm-1.59863-4.8711a12.49376,12.49376,0,0,0-5.05469-1.792,3.30977,3.30977,0,0,0-3.36035,1.35645,2.03474,2.03474,0,0,0-.26172.82128,2.06945,2.06945,0,0,0-1.19336,2.06348,2.022,2.022,0,0,0-.57617.63281c-1.14551,1.98438.69726,4.82618,4.585,7.07032a15.49079,15.49079,0,0,0,5.37109,1.99609,7.51049,7.51049,0,0,0,1.03223.07617,2.93894,2.93894,0,0,0,2.73535-1.21875,2.7746,2.7746,0,0,0,.19629-2.23242,2.77565,2.77565,0,0,0,1.835-1.28613c.57422-.99414.25683-2.35547-.89453-3.834A15.502,15.502,0,0,0,33.98085,33.98323Zm4.00878,6.73828a1.79121,1.79121,0,0,1-1.60351.65332.11841.11841,0,0,0-.02637,0,.75028.75028,0,0,0-.64746,1.12891,1.80767,1.80767,0,0,1,.24707,1.73535c-.23828.41211-1.10547.56836-2.26172.40723a14.00008,14.00008,0,0,1-4.82812-1.80957c-3.25586-1.87989-4.6084-4.0293-4.03614-5.02051a.76481.76481,0,0,1,.41114-.30078A.75039.75039,0,0,0,25.6576,36.494a.57031.57031,0,0,1,.47364-.81445.75133.75133,0,0,0,.68066-.87109.76317.76317,0,0,1,.05273-.50977v-.001a1.77963,1.77963,0,0,1,1.583-.625c.13184,0,.25488.00585.36231.01367a11.1907,11.1907,0,0,1,4.4209,1.5957,13.99666,13.99666,0,0,1,3.98046,3.27637C37.93006,39.4803,38.22792,40.30843,37.98963,40.72151ZM73.65272,60.98519a.75024.75024,0,0,1-1.0918,1.02929,13.06552,13.06552,0,0,0-2.9414-2.23437,16.252,16.252,0,0,0-3.207-1.43262.75023.75023,0,1,1,.44921-1.43164,17.81264,17.81264,0,0,1,3.50782,1.56543A14.43544,14.43544,0,0,1,73.65272,60.98519Zm-1.41113,3.45019a.74974.74974,0,0,1-.72852.57617.76876.76876,0,0,1-.1748-.02051,14.37044,14.37044,0,0,1-3.80762-1.59082,17.9047,17.9047,0,0,1-3.11035-2.25488.75059.75059,0,0,1,1.01562-1.10547,16.34122,16.34122,0,0,0,2.84473,2.06153,13.1005,13.1005,0,0,0,3.40527,1.43066A.75022.75022,0,0,1,72.24159,64.43538Zm-.36035-8.57129c-3.501-2.02148-7.89551-3.00879-9.14063-.85254a2.78285,2.78285,0,0,0-.19434,2.23242,2.77238,2.77238,0,0,0-1.83593,1.28516c-1.24414,2.1543,1.80664,5.46582,5.30859,7.48828a11.72946,11.72946,0,0,0,5.54981,1.81153A3.0813,3.0813,0,0,0,74.434,66.453a2.0393,2.0393,0,0,0,.26172-.82227A2.07188,2.07188,0,0,0,75.89,63.56819a2.04466,2.04466,0,0,0,.5752-.63379C77.61073,60.95,75.76893,58.10921,71.88124,55.86409Zm3.28515,6.32031a.75885.75885,0,0,1-.40918.29883.7492.7492,0,0,0-.41406,1.02051.57443.57443,0,0,1-.47559.81836.74836.74836,0,0,0-.67871.87109.77022.77022,0,0,1-.05371.50977c-.57226.99316-3.11133.89258-6.36621-.98438-3.61621-2.08886-5.23437-4.61621-4.75976-5.43945a1.79063,1.79063,0,0,1,1.60156-.65332h.02539a.864.864,0,0,0,.6543-.375.75113.75113,0,0,0-.002-.75391,1.812,1.812,0,0,1-.248-1.73632c.47656-.82129,3.47363-.68653,7.09082,1.40234C74.38612,59.0428,75.73866,61.19222,75.16639,62.1844ZM49.1244,24.45394a13.08582,13.08582,0,0,0-.46387,3.66406,16.27417,16.27417,0,0,0,.36231,3.49414.75164.75164,0,0,1-.56934.89551.78155.78155,0,0,1-.16406.01757.751.751,0,0,1-.73145-.58691,17.86543,17.86543,0,0,1-.39746-3.82031,14.38641,14.38641,0,0,1,.52637-4.09375.75017.75017,0,1,1,1.4375.42969Zm3.18848-.42969a14.40849,14.40849,0,0,1,.52734,4.09375,17.84161,17.84161,0,0,1-.39844,3.82031.751.751,0,0,1-.73144.58691.78164.78164,0,0,1-.16407-.01757.75164.75164,0,0,1-.56933-.89551,16.251,16.251,0,0,0,.36328-3.49414,13.10813,13.10813,0,0,0-.46484-3.66406.75017.75017,0,1,1,1.4375-.42969Zm-.28125-3.41114a2.028,2.028,0,0,0-.84278.18458,2.13331,2.13331,0,0,0-2.38379-.002,2.029,2.029,0,0,0-.83593-.18262c-2.291,0-3.83106,3.01563-3.83106,7.50489,0,4.04394,1.34278,8.34179,3.83106,8.34179a2.77618,2.77618,0,0,0,2.03125-.94726,2.77293,2.77293,0,0,0,2.03125.94726c2.4873,0,3.83007-4.29785,3.83007-8.34179C55.8617,23.62874,54.32264,20.61311,52.03163,20.61311Zm0,14.34668c-.63086,0-1.09864-.58789-1.37989-1.082a.74933.74933,0,0,0-1.30273,0c-.28223.49317-.75,1.082-1.37988,1.082-.9502,0-2.33106-2.665-2.33106-6.84179,0-3.75879,1.18555-6.00489,2.33106-6.00489a.77018.77018,0,0,1,.46582.20606.73524.73524,0,0,0,.57812.16211.7529.7529,0,0,0,.51074-.31445.59293.59293,0,0,1,.94336.001.75151.75151,0,0,0,.51368.31739.72436.72436,0,0,0,.58105-.16309.7693.7693,0,0,1,.46973-.209c1.1455,0,2.33007,2.2461,2.33007,6.00489C54.3617,32.29476,52.98182,34.95979,52.03163,34.95979Zm.41015,33.10157a17.85489,17.85489,0,0,1,.39844,3.82031,14.40849,14.40849,0,0,1-.52734,4.09375.75079.75079,0,0,1-.71875.53516.74309.74309,0,0,1-.21485-.03125.75135.75135,0,0,1-.5039-.9336,13.10813,13.10813,0,0,0,.46484-3.66406,16.26418,16.26418,0,0,0-.36328-3.49414.75036.75036,0,1,1,1.46484-.32617ZM49.1244,75.54573a.75136.75136,0,0,1-.50391.9336.743.743,0,0,1-.21484.03125.75079.75079,0,0,1-.71875-.53516,14.38641,14.38641,0,0,1-.52637-4.09375,17.87874,17.87874,0,0,1,.39746-3.82031.75036.75036,0,1,1,1.46485.32617,16.28743,16.28743,0,0,0-.36231,3.49414A13.08582,13.08582,0,0,0,49.1244,75.54573Zm2.90723-12.00586a2.77294,2.77294,0,0,0-2.03125.94727,2.77619,2.77619,0,0,0-2.03125-.94727c-2.48828,0-3.83106,4.29785-3.83106,8.3418,0,4.48926,1.54,7.50488,3.83106,7.50488a2.02021,2.02021,0,0,0,.84179-.18457,2.07061,2.07061,0,0,0,2.38379.00293,2.02883,2.02883,0,0,0,.83692.18164c2.291,0,3.83007-3.01562,3.83007-7.50488C55.8617,67.83772,54.51893,63.53987,52.03163,63.53987Zm0,14.34668a.76933.76933,0,0,1-.4668-.20508.73077.73077,0,0,0-.57813-.16113.74934.74934,0,0,0-.51171.31445.59309.59309,0,0,1-.94239-.00293.7492.7492,0,0,0-.51465-.31835.73606.73606,0,0,0-.10351-.00684.75193.75193,0,0,0-.47754.17187.76388.76388,0,0,1-.46777.208c-1.14551,0-2.33106-2.24609-2.33106-6.00488,0-4.17676,1.38086-6.8418,2.33106-6.8418.62988,0,1.09765.58887,1.37988,1.082a.74932.74932,0,0,0,1.30273,0c.28125-.49414.749-1.082,1.37989-1.082.95019,0,2.33007,2.665,2.33007,6.8418C54.3617,75.64046,53.17713,77.88655,52.03163,77.88655Z"/><text x="0" y="115" fill="#000000" font-size="5px" font-weight="bold" font-family="'Helvetica Neue', Helvetica, Arial-Unicode, Arial, Sans-serif">Created by Erin Agnoli</text><text x="0" y="120" fill="#000000" font-size="5px" font-weight="bold" font-family="'Helvetica Neue', Helvetica, Arial-Unicode, Arial, Sans-serif">from the Noun Project</text></svg>